<svg width="160" height="34" viewBox="0 0 160 34" fill="none" xmlns="http://www.w3.org/2000/svg">
<path d="M56.3633 20.6836C56.1211 22.7383 55.5156 24.3555 54.5469 25.5352C53.5781 26.7148 52.3047 27.2852 50.7266 27.2461C49.4766 27.2148 48.5156 26.6914 47.8438 25.6758L47.3633 27H43.8711L47 9H50.8555L49.6016 15.3633C50.4531 14.4961 51.4023 14.0703 52.4492 14.0859C53.6914 14.1016 54.6602 14.5469 55.3555 15.4219C56.0508 16.2891 56.418 17.4727 56.457 18.9727C56.4648 19.4727 56.4453 19.9609 56.3984 20.4375L56.3633 20.6836ZM52.5312 20.4492C52.5938 19.9727 52.6289 19.5195 52.6367 19.0898C52.6367 17.832 52.1875 17.1758 51.2891 17.1211C50.4922 17.0898 49.8242 17.4297 49.2852 18.1406L48.3711 23.2031C48.6133 23.8516 49.1445 24.1836 49.9648 24.1992C51.2227 24.2383 52.0156 23.418 52.3438 21.7383L52.5078 20.6953L52.5312 20.4492ZM64.9062 25.6172C63.9609 26.7344 62.8203 27.2773 61.4844 27.2461C60.2422 27.2305 59.3047 26.7969 58.6719 25.9453C58.0469 25.0938 57.8047 23.9531 57.9453 22.5234L59.3164 14.3203H63.1719L61.7773 22.5703C61.7539 22.7969 61.7539 23.0039 61.7773 23.1914C61.832 23.832 62.2109 24.1641 62.9141 24.1875C63.7266 24.2188 64.418 23.8984 64.9883 23.2266L66.5586 14.3203H70.4375L68.2344 27H64.6484L64.9062 25.6172ZM77.457 23.3672C77.5586 22.8516 77.1602 22.4648 76.2617 22.207L75.4297 21.9961C74.0703 21.6367 73.0742 21.1328 72.4414 20.4844C71.8086 19.8359 71.5117 19.0664 71.5508 18.1758C71.5898 16.957 72.1289 15.9688 73.168 15.2109C74.2148 14.4453 75.4883 14.0703 76.9883 14.0859C78.4805 14.1016 79.6875 14.4805 80.6094 15.2227C81.5391 15.9648 82.0117 16.9648 82.0273 18.2227L78.1836 18.2109C78.2148 17.2109 77.7734 16.7109 76.8594 16.7109C76.4688 16.7109 76.1055 16.8281 75.7695 17.0625C75.4336 17.2891 75.2344 17.5938 75.1719 17.9766C75.0391 18.6094 75.5977 19.043 76.8477 19.2773C77.9336 19.5352 78.7734 19.8359 79.3672 20.1797C79.9609 20.5156 80.4141 20.9336 80.7266 21.4336C81.0391 21.9336 81.1836 22.5352 81.1602 23.2383C81.1367 24.0039 80.8867 24.6875 80.4102 25.2891C79.9336 25.8906 79.2422 26.3711 78.3359 26.7305C77.4375 27.0898 76.4609 27.2578 75.4062 27.2344C74.4922 27.2266 73.6406 27.0352 72.8516 26.6602C72.0703 26.2852 71.457 25.7773 71.0117 25.1367C70.5742 24.4883 70.3477 23.7461 70.332 22.9102L73.918 22.9336C73.9336 24.0586 74.4961 24.6133 75.6055 24.5977C76.082 24.5977 76.4883 24.4922 76.8242 24.2812C77.1602 24.0625 77.3711 23.7578 77.457 23.3672ZM82.9531 25.2188C82.9375 24.625 83.1406 24.1328 83.5625 23.7422C83.9844 23.3516 84.4883 23.1562 85.0742 23.1562C85.6523 23.1562 86.1445 23.3359 86.5508 23.6953C86.957 24.0469 87.168 24.5078 87.1836 25.0781C87.1992 25.6641 87 26.1562 86.5859 26.5547C86.1719 26.9453 85.6641 27.1406 85.0625 27.1406C84.4688 27.1406 83.9727 26.9609 83.5742 26.6016C83.1758 26.2422 82.9688 25.7812 82.9531 25.2188ZM96.7344 11.168L96.1836 14.3203H98.2109L97.7305 17.0625H95.7031L94.7188 22.8867C94.6641 23.2852 94.6875 23.5859 94.7891 23.7891C94.8984 23.9922 95.1641 24.1016 95.5859 24.1172C95.75 24.125 96.0859 24.1055 96.5938 24.0586L96.3125 26.918C95.6641 27.1289 94.9727 27.2266 94.2383 27.2109C93.043 27.1953 92.1484 26.8438 91.5547 26.1562C90.9609 25.4688 90.7188 24.5352 90.8281 23.3555L91.8594 17.0625H90.2891L90.7578 14.3203H92.3281L92.8789 11.168H96.7344ZM104.762 27C104.652 26.6953 104.598 26.3125 104.598 25.8516C103.73 26.8047 102.695 27.2656 101.492 27.2344C100.391 27.2188 99.4766 26.8516 98.75 26.1328C98.0234 25.4141 97.6836 24.543 97.7305 23.5195C97.7695 22.1445 98.3438 21.0898 99.4531 20.3555C100.562 19.6133 102.078 19.2422 104 19.2422L105.289 19.2656L105.43 18.5508L105.477 17.9297C105.445 17.2188 105.09 16.8516 104.41 16.8281C103.566 16.8125 103.047 17.2773 102.852 18.2227L98.9844 18.2344C99.0234 17.3828 99.3008 16.6445 99.8164 16.0195C100.332 15.3867 101.031 14.9023 101.914 14.5664C102.805 14.2227 103.75 14.0625 104.75 14.0859C105.711 14.1094 106.551 14.3125 107.27 14.6953C107.996 15.0703 108.539 15.5977 108.898 16.2773C109.258 16.9492 109.395 17.7266 109.309 18.6094L108.359 24.5742L108.301 25.3008C108.27 25.8789 108.344 26.3711 108.523 26.7773L108.512 27H104.762ZM102.559 24.4453C103.348 24.4766 104.039 24.1289 104.633 23.4023L105.02 21.3633L104.023 21.3516C103.406 21.3672 102.875 21.5508 102.43 21.9023C101.984 22.2461 101.723 22.7188 101.645 23.3203C101.605 23.6406 101.664 23.9062 101.82 24.1172C101.984 24.3203 102.23 24.4297 102.559 24.4453ZM114.148 27H110.281L112.484 14.3203H116.352L114.148 27ZM112.824 11.1211C112.809 10.5508 113.008 10.0742 113.422 9.69141C113.844 9.30859 114.352 9.11719 114.945 9.11719C115.547 9.11719 116.047 9.28906 116.445 9.63281C116.852 9.97656 117.062 10.4258 117.078 10.9805C117.094 11.5586 116.895 12.0391 116.48 12.4219C116.066 12.7969 115.559 12.9844 114.957 12.9844C114.371 12.9844 113.871 12.8164 113.457 12.4805C113.051 12.1367 112.84 11.6836 112.824 11.1211ZM128.082 21.7852L130.625 14.3203H134.398L129.301 27H126.055L125.328 19.5234L121.988 27H118.719L118.016 14.3203H121.637L121.52 21.8672L124.766 14.3203H127.449L128.082 21.7852ZM140.762 27C140.652 26.6953 140.598 26.3125 140.598 25.8516C139.73 26.8047 138.695 27.2656 137.492 27.2344C136.391 27.2188 135.477 26.8516 134.75 26.1328C134.023 25.4141 133.684 24.543 133.73 23.5195C133.77 22.1445 134.344 21.0898 135.453 20.3555C136.562 19.6133 138.078 19.2422 140 19.2422L141.289 19.2656L141.43 18.5508L141.477 17.9297C141.445 17.2188 141.09 16.8516 140.41 16.8281C139.566 16.8125 139.047 17.2773 138.852 18.2227L134.984 18.2344C135.023 17.3828 135.301 16.6445 135.816 16.0195C136.332 15.3867 137.031 14.9023 137.914 14.5664C138.805 14.2227 139.75 14.0625 140.75 14.0859C141.711 14.1094 142.551 14.3125 143.27 14.6953C143.996 15.0703 144.539 15.5977 144.898 16.2773C145.258 16.9492 145.395 17.7266 145.309 18.6094L144.359 24.5742L144.301 25.3008C144.27 25.8789 144.344 26.3711 144.523 26.7773L144.512 27H140.762ZM138.559 24.4453C139.348 24.4766 140.039 24.1289 140.633 23.4023L141.02 21.3633L140.023 21.3516C139.406 21.3672 138.875 21.5508 138.43 21.9023C137.984 22.2461 137.723 22.7188 137.645 23.3203C137.605 23.6406 137.664 23.9062 137.82 24.1172C137.984 24.3203 138.23 24.4297 138.559 24.4453ZM151.801 14.3086L151.531 15.832C152.547 14.6289 153.77 14.043 155.199 14.0742C156.371 14.0977 157.242 14.5352 157.812 15.3867C158.391 16.2305 158.602 17.4414 158.445 19.0195L157.109 27H153.242L154.59 18.9961C154.621 18.7227 154.629 18.4727 154.613 18.2461C154.559 17.5039 154.121 17.1328 153.301 17.1328C152.621 17.1172 152 17.418 151.438 18.0352L149.855 27H146L148.203 14.3203L151.801 14.3086Z" fill="#72AEDA"/>
<path d="M25.7929 0H5.29085C3.88813 0.00162398 2.54332 0.561255 1.55144 1.55612C0.559567 2.55099 0.00161909 3.89986 0 5.30682V30.5142C0.000787712 31.2177 0.279755 31.8921 0.775698 32.3896C1.27164 32.887 1.94406 33.1668 2.64543 33.1676H6.61357C7.31494 33.1668 7.98735 32.887 8.4833 32.3896C8.97924 31.8921 9.25821 31.2177 9.259 30.5142V27.8608H21.8248V30.5142C21.8256 31.2177 22.1045 31.8921 22.6005 32.3896C23.0964 32.887 23.7688 33.1668 24.4702 33.1676H28.4383C29.1397 33.1668 29.8121 32.887 30.3081 32.3896C30.804 31.8921 31.083 31.2177 31.0838 30.5142V5.30682C31.0822 3.89986 30.5242 2.55099 29.5323 1.55612C28.5405 0.561255 27.1956 0.00162398 25.7929 0ZM2.64543 25.2074V15.9204H28.4383V25.2074H2.64543ZM2.64543 7.96022H28.4383V13.267H2.64543V7.96022ZM5.29085 2.65341H25.7929C26.4943 2.6542 27.1667 2.93401 27.6626 3.43145C28.1586 3.92889 28.4376 4.60333 28.4383 5.30682H2.64543C2.64621 4.60333 2.92518 3.92889 3.42113 3.43145C3.91707 2.93401 4.58949 2.6542 5.29085 2.65341ZM6.61357 30.5142H2.64543V27.8608H6.61357V30.5142ZM24.4702 30.5142V27.8608H28.4383V30.5142H24.4702ZM9.92035 20.5639C9.92035 20.9575 9.80399 21.3423 9.58598 21.6695C9.36796 21.9968 9.05809 22.2519 8.69555 22.4025C8.33301 22.5531 7.93408 22.5925 7.54921 22.5157C7.16434 22.4389 6.81081 22.2494 6.53333 21.9711C6.25585 21.6928 6.06689 21.3382 5.99033 20.9522C5.91378 20.5661 5.95307 20.166 6.10324 19.8024C6.25341 19.4387 6.50771 19.1279 6.83399 18.9092C7.16027 18.6906 7.54387 18.5739 7.93628 18.5739C8.46249 18.5739 8.96715 18.7835 9.33923 19.1567C9.71132 19.5299 9.92035 20.0361 9.92035 20.5639ZM25.1316 20.5639C25.1316 20.9575 25.0152 21.3423 24.7972 21.6695C24.5792 21.9968 24.2693 22.2519 23.9068 22.4025C23.5442 22.5531 23.1453 22.5925 22.7604 22.5157C22.3755 22.4389 22.022 22.2494 21.7445 21.9711C21.4671 21.6928 21.2781 21.3382 21.2015 20.9522C21.125 20.5661 21.1643 20.166 21.3144 19.8024C21.4646 19.4387 21.7189 19.1279 22.0452 18.9092C22.3715 18.6906 22.7551 18.5739 23.1475 18.5739C23.6737 18.5739 24.1784 18.7835 24.5504 19.1567C24.9225 19.5299 25.1316 20.0361 25.1316 20.5639Z" fill="#72AEDA"/>
<circle cx="7.90112" cy="20.5778" r="2.17065" fill="#FFD600"/>
<circle cx="23.009" cy="20.5778" r="2.17065" fill="#FFD600"/>
</svg>
